<svg id="ImageUpload-List" data-name="ImageUpload-List" xmlns="http://www.w3.org/2000/svg" xmlns:xlink="http://www.w3.org/1999/xlink" viewBox="0 0 666.76 601.33">
  <defs>
    <clipPath id="clip-path" transform="translate(-27.78 -60)">
      <rect x="28.24" y="377.03" width="666.76" height="284.3" style="fill:none" />
    </clipPath>
    <clipPath id="clip-path-2" transform="translate(-27.78 -60)">
      <rect x="28.24" y="377.03" width="349.44" height="284.3" style="fill:none" />
    </clipPath>
    <clipPath id="clip-path-4" transform="translate(-27.78 -60)">
      <rect x="28.24" y="60" width="666.76" height="284.3" style="fill:none" />
    </clipPath>
    <clipPath id="clip-path-5" transform="translate(-27.78 -60)">
      <rect x="28.24" y="60" width="349.44" height="284.3" style="fill:none" />
    </clipPath>
  </defs>
  <g style="clip-path:url(#clip-path)">
    <g style="clip-path:url(#clip-path-2)">
      <rect x="10.21" y="327.24" width="329.49" height="263.89" rx="21.25" style="fill:#fff" />
      <path d="M346.23,397.44a11,11,0,0,1,11,11.05V629.87a11,11,0,0,1-11,11h-287a11.05,11.05,0,0,1-11.05-11V408.49a11.05,11.05,0,0,1,11.05-11.05h287m0-20.41h-287a31.49,31.49,0,0,0-31.46,31.46V629.87a31.49,31.49,0,0,0,31.46,31.46h287a31.49,31.49,0,0,0,31.45-31.46V408.49A31.49,31.49,0,0,0,346.23,377" transform="translate(-27.78 -60)" style="fill:#706e6a" />
      <path d="M331.62,460.57a37.47,37.47,0,1,1-37.47-37.47,37.47,37.47,0,0,1,37.47,37.47" transform="translate(-27.78 -60)" style="fill:#706e6a" />
      <path d="M250,534.84l-10.25,8.78c-8.78,5.86-8.78,5.86-15.37,0l-38.26-45.94c-13.7-14.8-18.82-14.07-35,4.2L45.76,631.45v17.73H361.21V632.91l-83.4-96.6c-12.44-11.71-15.37-11.71-27.81-1.47" transform="translate(-27.78 -60)" style="fill:#706e6a" />
    </g>
    <g style="clip-path:url(#clip-path)">
      <path d="M604.35,538.19H426.26a15.61,15.61,0,0,1-15.61-15.61v-6.37a15.61,15.61,0,0,1,15.61-15.61H604.35A15.61,15.61,0,0,1,620,516.21v6.37a15.61,15.61,0,0,1-15.61,15.61" transform="translate(-27.78 -60)" style="fill:#706e6a" />
      <path d="M604.35,642.6H426.26A15.61,15.61,0,0,1,410.65,627v-6.37A15.61,15.61,0,0,1,426.26,605H604.35A15.61,15.61,0,0,1,620,620.62V627a15.61,15.61,0,0,1-15.61,15.61" transform="translate(-27.78 -60)" style="fill:#706e6a" />
      <path d="M678.93,433.78H426.26a15.61,15.61,0,0,1-15.61-15.61v-6.38a15.61,15.61,0,0,1,15.61-15.61H678.93a15.61,15.61,0,0,1,15.61,15.61v6.38a15.61,15.61,0,0,1-15.61,15.61" transform="translate(-27.78 -60)" style="fill:#706e6a" />
    </g>
  </g>
  <g style="clip-path:url(#clip-path-4)">
    <g style="clip-path:url(#clip-path-5)">
      <rect x="10.21" y="10.21" width="329.49" height="263.89" rx="21.25" style="fill:#fff" />
      <path d="M346.23,80.41a11,11,0,0,1,11,11V312.84a11,11,0,0,1-11,11.05h-287a11.05,11.05,0,0,1-11.05-11.05V91.46a11.05,11.05,0,0,1,11.05-11h287m0-20.41h-287A31.49,31.49,0,0,0,27.78,91.46V312.84A31.49,31.49,0,0,0,59.24,344.3h287a31.49,31.49,0,0,0,31.45-31.46V91.46A31.49,31.49,0,0,0,346.23,60" transform="translate(-27.78 -60)" style="fill:#706e6a" />
      <path d="M331.62,143.54a37.47,37.47,0,1,1-37.47-37.47,37.48,37.48,0,0,1,37.47,37.47" transform="translate(-27.78 -60)" style="fill:#706e6a" />
      <path d="M250,217.81l-10.25,8.78c-8.78,5.86-8.78,5.86-15.37,0l-38.26-45.94c-13.7-14.8-18.82-14.07-35,4.2L45.76,314.41v17.74H361.21V315.88l-83.4-96.61c-12.44-11.71-15.37-11.71-27.81-1.46" transform="translate(-27.78 -60)" style="fill:#706e6a" />
    </g>
    <g style="clip-path:url(#clip-path-4)">
      <path d="M604.35,221.16H426.26a15.61,15.61,0,0,1-15.61-15.61v-6.38a15.6,15.6,0,0,1,15.61-15.6H604.35A15.6,15.6,0,0,1,620,199.17v6.38a15.61,15.61,0,0,1-15.61,15.61" transform="translate(-27.78 -60)" style="fill:#706e6a" />
      <path d="M604.35,325.57H426.26A15.61,15.61,0,0,1,410.65,310v-6.37A15.61,15.61,0,0,1,426.26,288H604.35A15.61,15.61,0,0,1,620,303.59V310a15.61,15.61,0,0,1-15.61,15.61" transform="translate(-27.78 -60)" style="fill:#706e6a" />
      <path d="M678.93,116.74H426.26a15.6,15.6,0,0,1-15.61-15.6V94.76a15.61,15.61,0,0,1,15.61-15.61H678.93a15.61,15.61,0,0,1,15.61,15.61v6.38a15.6,15.6,0,0,1-15.61,15.6" transform="translate(-27.78 -60)" style="fill:#706e6a" />
    </g>
  </g>
</svg>
